HIERARCHY
ROOT Hips
{
	OFFSET -0.001795 -0.223333 0.028219
	CHANNELS 6 Xposition Yposition Zposition Zrotation Yrotation Xrotation 
	JOINT LeftUpLeg
	{
		OFFSET 0.069520 -0.091406 -0.006815
		CHANNELS 3 Zrotation Yrotation Xrotation
		JOINT LeftLeg
		{
			OFFSET 0.034277 -0.375199 -0.004496
			CHANNELS 3 Zrotation Yrotation Xrotation
			JOINT LeftFoot
			{
				OFFSET -0.013596 -0.397961 -0.043693
				CHANNELS 3 Zrotation Yrotation Xrotation
				JOINT LeftToe
				{
					OFFSET 0.026358 -0.055791 0.119288
					CHANNELS 3 Zrotation Yrotation Xrotation
					End Site
					{
						OFFSET 0.000000 0.000000 0.000000
					}
				}
			}
		}
	}
	JOINT RightUpLeg
	{
		OFFSET -0.067670 -0.090522 -0.004320
		CHANNELS 3 Zrotation Yrotation Xrotation
		JOINT RightLeg
		{
			OFFSET -0.038290 -0.382569 -0.008850
			CHANNELS 3 Zrotation Yrotation Xrotation
			JOINT RightFoot
			{
				OFFSET 0.015774 -0.398415 -0.042312
				CHANNELS 3 Zrotation Yrotation Xrotation
				JOINT RightToe
				{
					OFFSET -0.025372 -0.048144 0.123348
					CHANNELS 3 Zrotation Yrotation Xrotation
					End Site
					{
						OFFSET 0.000000 0.000000 0.000000
					}
				}
			}
		}
	}
	JOINT Spine
	{
		OFFSET -0.002533 0.108963 -0.026696
		CHANNELS 3 Zrotation Yrotation Xrotation
		JOINT Spine1
		{
			OFFSET 0.005487 0.135180 0.001092
			CHANNELS 3 Zrotation Yrotation Xrotation
			JOINT Spine2
			{
				OFFSET 0.001457 0.052922 0.025425
				CHANNELS 3 Zrotation Yrotation Xrotation
				JOINT Neck
				{
					OFFSET -0.002778 0.213870 -0.042857
					CHANNELS 3 Zrotation Yrotation Xrotation
					JOINT Head
					{
						OFFSET 0.005152 0.064970 0.051349
						CHANNELS 3 Zrotation Yrotation Xrotation
						End Site
						{
							OFFSET 0.000000 0.000000 0.000000
						}
					}
				}
				JOINT LeftShoulder
				{
					OFFSET 0.078845 0.121749 -0.034090
					CHANNELS 3 Zrotation Yrotation Xrotation
					JOINT LeftArm
					{
						OFFSET 0.090977 0.030469 -0.008868
						CHANNELS 3 Zrotation Yrotation Xrotation
						JOINT LeftForeArm
						{
							OFFSET 0.259612 -0.012772 -0.027456
							CHANNELS 3 Zrotation Yrotation Xrotation
							JOINT LeftHand
							{
								OFFSET 0.249234 0.008986 -0.001171
								CHANNELS 3 Zrotation Yrotation Xrotation
								End Site
								{
									OFFSET 0.000000 0.000000 0.000000
								}
							}
						}
					}
				}
				JOINT RightShoulder
				{
					OFFSET -0.081759 0.118833 -0.038615
					CHANNELS 3 Zrotation Yrotation Xrotation
					JOINT RightArm
					{
						OFFSET -0.096012 0.032551 -0.009143
						CHANNELS 3 Zrotation Yrotation Xrotation
						JOINT RightForeArm
						{
							OFFSET -0.253742 -0.013329 -0.021401
							CHANNELS 3 Zrotation Yrotation Xrotation
							JOINT RightHand
							{
								OFFSET -0.255298 0.007772 -0.005559
								CHANNELS 3 Zrotation Yrotation Xrotation
								End Site
								{
									OFFSET 0.000000 0.000000 0.000000
								}
							}
						}
					}
				}
			}
		}
	}
}
MOTION
Frames: 10
Frame Time: 0.050000
0.000000 0.960417 0.000000 -7.586926 10.893877 -0.587108 -0.365936 -1.580511 -15.393849 -0.776978 -1.486045 25.137002 -3.282009 1.324435 13.660483 0.000000 0.000000 0.000000 1.741156 3.960921 -67.118523 7.220231 -6.361415 74.203937 -2.465289 -5.200819 -2.224238 0.000000 0.000000 0.000000 6.180316 -2.332286 18.978848 3.906950 -0.905780 -10.977981 -3.774441 -23.297625 8.042242 -5.509725 3.063377 -11.207305 0.000000 0.000000 0.000000 9.518743 -9.029428 1.748706 -15.482946 -47.546768 4.570316 53.732820 -20.605647 -5.636380 0.000000 0.000000 0.000000 -3.342037 -11.666938 -2.587250 46.062313 -27.896651 -16.817949 36.283394 43.481503 12.558133 0.000000 0.000000 0.000000 
0.003840 0.991220 0.009049 -6.779271 12.905761 1.758819 -1.413971 -2.986665 -24.038445 -1.831462 -2.201511 34.567982 -2.071482 0.856681 8.598899 0.000000 0.000000 0.000000 3.972647 4.253749 -55.242901 9.383802 -7.232560 57.319601 -2.449074 -9.034110 13.698350 0.000000 0.000000 0.000000 6.595059 -2.028098 15.453970 3.633040 -1.030574 -7.506907 -4.326805 -13.820455 6.218092 1.381892 -0.352933 -16.409720 0.000000 0.000000 0.000000 3.540845 -9.799109 3.282797 -38.999636 -50.579768 13.053628 62.707160 -38.834145 -19.546694 0.000000 0.000000 0.000000 0.066679 -10.787216 -3.651333 57.060035 -26.905026 -19.176049 29.423929 55.273918 15.895576 0.000000 0.000000 0.000000 
0.007290 0.981428 0.023165 -1.371190 10.322011 1.870163 -3.001549 -4.712643 -32.431278 -9.524295 1.149849 48.054170 0.973264 7.436485 13.266315 0.000000 0.000000 0.000000 3.575106 3.558045 -35.360521 4.161848 -1.994876 38.648011 4.081818 2.225201 15.839377 0.000000 0.000000 0.000000 1.950641 -1.345162 17.327319 2.876426 -0.926947 -5.484397 -4.192959 -7.569459 4.385489 4.757368 -2.014933 -14.813267 0.000000 0.000000 0.000000 -4.654170 -4.606280 1.465699 -51.249721 -33.195757 8.646447 44.951954 -58.486661 -22.413947 0.000000 0.000000 0.000000 1.367657 -4.199042 -1.636432 64.920806 -8.311884 -11.118443 -16.381122 57.866860 -6.953187 0.000000 0.000000 0.000000 
0.010128 0.950328 0.038241 -0.986815 1.574935 1.852675 1.727928 -2.960918 -35.373122 -12.967883 6.163511 56.645735 1.878559 7.980777 12.684154 0.000000 0.000000 0.000000 8.394020 4.824728 -29.133257 -0.815841 1.621886 34.824077 3.751522 5.921286 5.622481 0.000000 0.000000 0.000000 1.169932 -0.965365 17.417268 -2.044716 1.034146 -6.423651 -2.782324 6.305514 7.387063 7.429597 -1.805329 -20.940100 0.000000 0.000000 0.000000 -9.269182 -4.025486 -0.057691 -52.000554 -18.560203 1.448593 15.459189 -52.976463 -7.046026 0.000000 0.000000 0.000000 4.897585 -5.173485 -2.084627 61.338041 6.804020 -1.770232 -45.963422 58.977410 -20.482928 0.000000 0.000000 0.000000 
0.013156 0.918066 0.047577 -2.135950 -2.824865 1.021630 3.081617 -2.021311 -34.753530 -12.007971 7.278922 59.051299 2.578308 7.924429 8.704832 0.000000 0.000000 0.000000 9.629982 5.046909 -27.284983 2.253447 0.851147 34.692390 -1.037484 -0.257494 -4.396373 0.000000 0.000000 0.000000 1.407982 -0.994647 19.998649 -2.575692 1.191660 -5.977485 -3.577437 11.605845 7.685729 9.245432 -2.002082 -23.459716 0.000000 0.000000 0.000000 -14.977582 -0.952328 -3.027128 -50.757902 -1.582344 -5.366080 4.793687 -42.154997 -1.646773 0.000000 0.000000 0.000000 4.012963 -2.321842 -0.766396 58.325153 22.129297 6.390770 -63.536770 54.414989 -26.808365 0.000000 0.000000 0.000000 
0.015235 0.912130 0.053051 -2.609196 -5.238773 0.070050 2.271722 -1.822984 -30.779557 -12.734055 8.143201 55.375902 5.687370 12.797883 6.643091 0.000000 0.000000 0.000000 6.580237 5.872212 -34.114231 8.445730 -1.533671 44.611326 -0.847658 -3.458103 2.559118 0.000000 0.000000 0.000000 -1.032317 -0.457862 21.058771 -0.924617 0.453948 -3.421538 -4.067295 8.587362 6.115078 8.985994 -3.040658 -19.415800 0.000000 0.000000 0.000000 -12.746666 0.874322 -2.674547 -52.310021 5.268661 -8.599211 4.754681 -39.570321 -0.973681 0.000000 0.000000 0.000000 1.534750 0.080047 0.020599 58.633481 27.567367 9.242763 -70.804374 58.974960 -36.520452 0.000000 0.000000 0.000000 
0.014454 0.910648 0.056464 -3.872160 -4.102826 2.700099 3.054357 -1.705709 -30.755416 -12.697211 6.655690 47.851796 6.116064 13.079028 2.617272 0.000000 0.000000 0.000000 2.959053 6.642753 -45.562071 12.702754 -4.860846 55.452179 -1.303489 -7.081374 9.637911 0.000000 0.000000 0.000000 -0.925788 -0.513526 20.065854 -1.440302 0.691926 -4.124186 -4.026962 3.863809 8.199692 7.831415 -2.704763 -20.564307 0.000000 0.000000 0.000000 -11.120205 0.265926 -1.452183 -51.545457 -1.727927 -5.711744 6.240687 -30.636362 -0.615881 0.000000 0.000000 0.000000 4.447598 -1.233340 -0.703409 61.793780 22.955765 6.384660 -66.889026 67.982665 -42.038734 0.000000 0.000000 0.000000 
0.010921 0.909033 0.061484 -5.657537 3.077975 3.501528 3.084212 -2.241382 -29.940987 -10.012453 3.003035 43.982100 5.153888 10.377465 -1.921267 0.000000 0.000000 0.000000 1.280557 5.134952 -50.333468 13.723818 -8.403914 60.891921 -2.572998 -9.928653 13.002356 0.000000 0.000000 0.000000 0.103806 -1.046161 20.717287 2.007115 -0.724547 -4.057964 -6.157005 -1.775680 9.018296 8.633822 -3.779238 -18.217756 0.000000 0.000000 0.000000 -14.738136 -5.129041 1.088222 -46.535424 -11.567411 -1.529654 12.659257 -28.941758 -2.041239 0.000000 0.000000 0.000000 12.788713 -3.990699 -2.857447 56.268103 10.274262 -0.976271 -24.788910 70.853250 -13.685262 0.000000 0.000000 0.000000 
0.007089 0.902528 0.069954 -5.106807 9.826905 3.055011 1.238688 -3.136932 -29.640395 -7.793904 0.410964 43.517483 3.895158 6.723961 -4.038962 0.000000 0.000000 0.000000 1.636416 3.737975 -50.469240 10.707298 -8.775091 63.997773 -2.499757 -10.024870 16.037363 0.000000 0.000000 0.000000 -1.291416 -1.218256 23.066028 2.283184 -0.797818 -3.836524 -4.170370 -8.509363 7.832695 8.408541 -4.374042 -16.005303 0.000000 0.000000 0.000000 -16.290826 -6.903277 2.785566 -43.471499 -23.441838 2.594828 17.248734 -35.911477 -3.583453 0.000000 0.000000 0.000000 12.833909 -5.088308 -3.986923 55.879307 -6.239728 -8.568742 9.247921 66.523405 7.922377 0.000000 0.000000 0.000000 
0.003878 0.894634 0.082296 -5.274477 13.567810 2.428890 0.684488 -3.266610 -28.081000 -7.746859 -0.371412 43.016156 4.809601 6.032937 -9.528060 0.000000 0.000000 0.000000 2.830093 3.376489 -49.546335 9.985392 -9.792078 65.271802 -2.681012 -10.565031 18.525394 0.000000 0.000000 0.000000 -1.839797 -1.465104 24.854837 2.483623 -0.707946 -5.686099 -3.248958 -10.116595 9.244072 7.541664 -3.411618 -19.563060 0.000000 0.000000 0.000000 -14.225135 -7.765780 3.181509 -45.733709 -30.959108 5.832778 20.567534 -40.847139 -5.270222 0.000000 0.000000 0.000000 10.346797 -7.813466 -4.719018 55.690982 -14.557289 -12.484997 21.129166 58.887297 13.497209 0.000000 0.000000 0.000000 
